<svg width="558" height="242" viewBox="0 0 558 242" fill="none" xmlns="http://www.w3.org/2000/svg">
<path d="M39.1104 194.534L38.9588 47.5342L60.5588 47.5119L60.6898 174.512L89.2898 174.482L89.3104 194.482L39.1104 194.534ZM95.5479 194.476L117.596 47.4531L143.996 47.4258L166.348 194.403L145.348 194.425L141.317 164.429L120.517 164.45L116.548 194.454L95.5479 194.476ZM123.493 141.647L138.293 141.632L132.042 92.2382L131.434 84.4388L130.234 84.4401L129.642 92.2407L123.493 141.647ZM202.184 195.966C196.251 195.972 191.416 194.577 187.68 191.781C183.943 188.985 181.173 185.188 179.368 180.389C177.629 175.591 176.757 170.192 176.751 164.192L176.662 77.5922C176.656 71.6588 177.817 66.291 180.145 61.4886C182.474 56.6862 185.803 52.8827 190.133 50.0783C194.464 47.2071 199.562 45.7685 205.429 45.7625C209.896 45.7579 213.896 46.5871 217.432 48.2501C221.033 49.8464 224.069 52.1099 226.539 55.0407C229.075 57.9714 230.978 61.3695 232.249 65.2349C233.586 69.0335 234.257 73.1328 234.262 77.5328L234.285 100.133L212.685 100.155L212.662 77.555C212.659 74.6217 212.123 72.0889 211.054 69.9567C209.985 67.8245 208.117 66.7597 205.451 66.7625C202.851 66.7652 200.985 67.9004 199.854 70.1682C198.79 72.3693 198.259 74.8366 198.262 77.5699L198.353 165.97C198.356 168.837 198.925 171.369 200.061 173.568C201.196 175.7 203.031 176.765 205.564 176.762C208.231 176.76 210.096 175.691 211.161 173.557C212.225 171.356 212.756 168.822 212.753 165.955L212.728 141.355L204.128 141.364L204.107 121.164L234.307 121.133L234.382 194.333L221.582 194.346L218.974 186.349C217.11 189.351 214.713 191.72 211.781 193.456C208.916 195.126 205.717 195.962 202.184 195.966ZM281.298 194.284L281.146 47.2844L301.346 47.2636L321.425 123.843L323.232 130.641L324.432 130.64L324.346 47.2399L344.146 47.2195L344.298 194.219L326.098 194.238L304.019 117.661L302.212 110.863L301.012 110.864L301.098 194.264L281.298 194.284ZM388.006 195.774C382.006 195.78 376.838 194.386 372.501 191.59C368.232 188.795 364.928 184.998 362.59 180.201C360.318 175.403 359.179 170.004 359.173 164.004L359.084 77.4041C359.077 71.3374 360.205 65.9362 362.467 61.2006C364.795 56.3982 368.091 52.5948 372.355 49.7904C376.686 46.9859 381.851 45.5806 387.851 45.5744C393.851 45.5682 398.986 46.9629 403.255 49.7585C407.591 52.554 410.895 56.3506 413.167 61.1483C415.505 65.9459 416.677 71.3447 416.684 77.3447L416.773 163.945C416.779 169.945 415.618 175.346 413.29 180.148C411.028 184.951 407.732 188.754 403.401 191.558C399.138 194.363 394.006 195.768 388.006 195.774ZM387.984 174.774C390.651 174.772 392.516 173.67 393.581 171.469C394.645 169.201 395.176 166.7 395.173 163.967L395.084 77.3669C395.081 74.6336 394.511 72.1675 393.376 69.9687C392.24 67.7032 390.406 66.5718 387.872 66.5744C385.406 66.5769 383.574 67.7121 382.376 69.98C381.245 72.1812 380.681 74.6485 380.684 77.3818L380.773 163.982C380.776 166.715 381.345 169.214 382.481 171.48C383.616 173.679 385.451 174.777 387.984 174.774ZM446.684 194.114L426.732 47.1343L446.732 47.1137L455.411 123.505L455.816 128.304L457.416 128.303L458.011 123.502L467.132 47.0926L482.732 47.0766L492.011 123.467L492.616 128.266L494.216 128.265L494.611 123.464L503.132 47.0555L523.132 47.0349L503.484 194.055L486.684 194.073L476.612 124.483L475.403 115.884L474.603 115.885L473.412 124.486L463.484 194.096L446.684 194.114Z" fill="url(#paint0_linear_11_2)"/>
<path d="M323.641 209.437V205.125H337.172V209.437H332.609V227H328.203V209.437H323.641ZM338.891 227V205.125H343.297V213.843H344.516V218.156H343.297V227H338.891ZM346.234 218.156V213.843H347.453V205.125H351.859V227H347.453V218.156H346.234ZM354.422 227V205.125H365.797V209.5H358.828V213.937H362.859V218.343H358.828V222.593H365.797V227H354.422ZM375.109 222.062L379.078 220.656C379.078 221.177 379.224 221.635 379.516 222.031C379.807 222.427 380.099 222.687 380.391 222.812L380.828 223.031V227.093C379.057 227.093 377.547 226.323 376.297 224.781C375.526 223.802 375.13 222.896 375.109 222.062ZM375.359 211.125C375.359 208.833 376.339 207.114 378.297 205.968C379.193 205.427 380.036 205.146 380.828 205.125V209.25C380.307 209.396 379.922 209.771 379.672 210.375C379.589 210.562 379.547 210.76 379.547 210.968C379.547 211.823 380.182 212.552 381.453 213.156C381.724 213.281 382.161 213.468 382.766 213.718C383.766 214.114 384.474 214.437 384.891 214.687C386.578 215.687 387.703 216.708 388.266 217.75C388.682 218.562 388.891 219.468 388.891 220.468C388.891 222.364 388.172 223.989 386.734 225.343C385.505 226.51 384.109 227.093 382.547 227.093V223.031C383.359 222.927 383.932 222.5 384.266 221.75C384.411 221.416 384.484 221.052 384.484 220.656C384.484 219.593 383.693 218.718 382.109 218.031C381.818 217.906 381.359 217.729 380.734 217.5C380.005 217.25 379.495 217.052 379.203 216.906C377.411 216.052 376.266 214.948 375.766 213.593C375.495 212.864 375.359 212.041 375.359 211.125ZM382.547 209.25V205.125C384.297 205.125 385.766 205.864 386.953 207.343C387.641 208.218 387.995 209.01 388.016 209.718L383.953 211.062C383.953 210.187 383.526 209.593 382.672 209.281C382.589 209.26 382.547 209.25 382.547 209.25ZM390.516 227L394.547 208.812H395.016L396.891 217.562L394.828 227H390.516ZM397.172 224.343L398.109 220.031H399.234L395.922 205.125H400.266L405.422 227H401.047L400.422 224.343H397.172ZM406.641 222.062L410.609 220.656C410.609 221.177 410.755 221.635 411.047 222.031C411.339 222.427 411.63 222.687 411.922 222.812L412.359 223.031V227.093C410.589 227.093 409.078 226.323 407.828 224.781C407.057 223.802 406.661 222.896 406.641 222.062ZM406.891 211.125C406.891 208.833 407.87 207.114 409.828 205.968C410.724 205.427 411.568 205.146 412.359 205.125V209.25C411.839 209.396 411.453 209.771 411.203 210.375C411.12 210.562 411.078 210.76 411.078 210.968C411.078 211.823 411.714 212.552 412.984 213.156C413.255 213.281 413.693 213.468 414.297 213.718C415.297 214.114 416.005 214.437 416.422 214.687C418.109 215.687 419.234 216.708 419.797 217.75C420.214 218.562 420.422 219.468 420.422 220.468C420.422 222.364 419.703 223.989 418.266 225.343C417.036 226.51 415.641 227.093 414.078 227.093V223.031C414.891 222.927 415.464 222.5 415.797 221.75C415.943 221.416 416.016 221.052 416.016 220.656C416.016 219.593 415.224 218.718 413.641 218.031C413.349 217.906 412.891 217.729 412.266 217.5C411.536 217.25 411.026 217.052 410.734 216.906C408.943 216.052 407.797 214.948 407.297 213.593C407.026 212.864 406.891 212.041 406.891 211.125ZM414.078 209.25V205.125C415.828 205.125 417.297 205.864 418.484 207.343C419.172 208.218 419.526 209.01 419.547 209.718L415.484 211.062C415.484 210.187 415.057 209.593 414.203 209.281C414.12 209.26 414.078 209.25 414.078 209.25ZM421.516 209.437V205.125H435.047V209.437H430.484V227H426.078V209.437H421.516ZM436.516 227L440.547 208.812H441.016L442.891 217.562L440.828 227H436.516ZM443.172 224.343L444.109 220.031H445.234L441.922 205.125H446.266L451.422 227H447.047L446.422 224.343H443.172ZM460.703 220.906V210.625C460.703 209.521 461.172 208.396 462.109 207.25C463.359 205.75 464.943 204.989 466.859 204.968V209.375C466.005 209.396 465.443 209.875 465.172 210.812C465.13 210.958 465.109 211.062 465.109 211.125V220.906C465.109 221.76 465.578 222.343 466.516 222.656C466.661 222.698 466.766 222.718 466.828 222.718V227.156C465.641 227.156 464.453 226.729 463.266 225.875C461.578 224.625 460.724 222.968 460.703 220.906ZM468.547 227.156V222.718C468.88 222.718 469.255 222.541 469.672 222.187C470.068 221.833 470.276 221.406 470.297 220.906V211.125C470.297 210.75 470.12 210.354 469.766 209.937C469.432 209.583 469.026 209.396 468.547 209.375V204.968C470.651 204.968 472.339 205.875 473.609 207.687C474.339 208.729 474.703 209.708 474.703 210.625V220.906C474.703 223.218 473.672 224.989 471.609 226.218C470.526 226.843 469.505 227.156 468.547 227.156ZM476.359 209.437V205.125H489.891V209.437H485.328V227H480.922V209.437H476.359ZM490.828 209.437V205.125H504.359V209.437H499.797V227H495.391V209.437H490.828Z" fill="url(#paint1_linear_11_2)"/>
<defs>
<linearGradient id="paint0_linear_11_2" x1="278.469" y1="0.287162" x2="278.717" y2="240.812" gradientUnits="userSpaceOnUse">
<stop stop-color="#4000FF"/>
<stop offset="1" stop-color="#B8B8B8"/>
</linearGradient>
<linearGradient id="paint1_linear_11_2" x1="323" y1="218" x2="505" y2="218" gradientUnits="userSpaceOnUse">
<stop stop-color="#F40000"/>
<stop offset="1" stop-color="white"/>
</linearGradient>
</defs>
</svg>
