<svg width="486" height="152" viewBox="0 0 486 152" fill="none" xmlns="http://www.w3.org/2000/svg">
<path d="M1.11042 149.534L0.958843 2.53416L22.5588 2.51188L22.6898 129.512L51.2898 129.482L51.3104 149.482L1.11042 149.534ZM57.5479 149.476L79.5963 2.45307L105.996 2.42584L128.348 149.403L107.348 149.425L103.317 119.429L82.5169 119.45L78.5479 149.454L57.5479 149.476ZM85.4934 96.647L100.293 96.6318L94.0425 47.2382L93.4344 39.4388L92.2344 39.4401L91.6425 47.2407L85.4934 96.647ZM164.184 150.966C158.251 150.972 153.416 149.577 149.68 146.781C145.943 143.985 143.173 140.188 141.368 135.389C139.629 130.591 138.757 125.192 138.751 119.192L138.662 32.5922C138.656 26.6588 139.817 21.291 142.145 16.4886C144.474 11.6862 147.803 7.88274 152.133 5.07827C156.464 2.20713 161.562 0.768543 167.429 0.762493C171.896 0.757888 175.896 1.58709 179.432 3.25012C183.033 4.84641 186.069 7.10995 188.539 10.0407C191.075 12.9714 192.978 16.3695 194.249 20.2349C195.586 24.0335 196.257 28.1328 196.262 32.5328L196.285 55.1328L174.685 55.155L174.662 32.555C174.659 29.6217 174.123 27.0889 173.054 24.9567C171.985 22.8245 170.117 21.7597 167.451 21.7625C164.851 21.7652 162.985 22.9004 161.854 25.1682C160.79 27.3693 160.259 29.8366 160.262 32.5699L160.353 120.97C160.356 123.837 160.925 126.369 162.061 128.568C163.196 130.7 165.031 131.765 167.564 131.762C170.231 131.76 172.096 130.691 173.161 128.557C174.225 126.356 174.756 123.822 174.753 120.955L174.728 96.355L166.128 96.3639L166.107 76.1639L196.307 76.1328L196.382 149.333L183.582 149.346L180.974 141.349C179.11 144.351 176.713 146.72 173.781 148.456C170.916 150.126 167.717 150.962 164.184 150.966ZM243.298 149.284L243.146 2.28442L263.346 2.26359L283.425 78.8429L285.232 85.6411L286.432 85.6398L286.346 2.23987L306.146 2.21946L306.298 149.219L288.098 149.238L266.019 72.6609L264.212 65.8627L263.012 65.864L263.098 149.264L243.298 149.284ZM350.006 150.774C344.006 150.78 338.838 149.386 334.501 146.59C330.232 143.795 326.928 139.998 324.59 135.201C322.318 130.403 321.179 125.004 321.173 119.004L321.084 32.4041C321.077 26.3374 322.205 20.9362 324.467 16.2006C326.795 11.3982 330.091 7.59476 334.355 4.79036C338.686 1.9859 343.851 0.580573 349.851 0.574386C355.851 0.568199 360.986 1.9629 365.255 4.7585C369.591 7.55403 372.895 11.3506 375.167 16.1483C377.505 20.9459 378.677 26.3447 378.684 32.3447L378.773 118.945C378.779 124.945 377.618 130.346 375.29 135.148C373.028 139.951 369.732 143.754 365.401 146.558C361.138 149.363 356.006 150.768 350.006 150.774ZM349.984 129.774C352.651 129.772 354.516 128.67 355.581 126.469C356.645 124.201 357.176 121.7 357.173 118.967L357.084 32.3669C357.081 29.6336 356.511 27.1675 355.376 24.9687C354.24 22.7032 352.406 21.5718 349.872 21.5744C347.406 21.5769 345.574 22.7121 344.376 24.98C343.245 27.1812 342.681 29.6485 342.684 32.3818L342.773 118.982C342.776 121.715 343.345 124.214 344.481 126.48C345.616 128.679 347.451 129.777 349.984 129.774ZM408.684 149.114L388.732 2.1343L408.732 2.11367L417.411 78.5048L417.816 83.3043L419.416 83.3027L420.011 78.5021L429.132 2.09264L444.732 2.07655L454.011 78.467L454.616 83.2664L456.216 83.2647L456.611 78.4643L465.132 2.05552L485.132 2.03489L465.484 149.055L448.684 149.073L438.612 79.4829L437.403 70.8841L436.603 70.885L435.412 79.4862L425.484 149.096L408.684 149.114Z" fill="url(#paint0_linear_1_4)"/>
<defs>
<linearGradient id="paint0_linear_1_4" x1="240.469" y1="-44.7128" x2="240.717" y2="195.812" gradientUnits="userSpaceOnUse">
<stop stop-color="#4000FF"/>
<stop offset="1" stop-color="#B8B8B8"/>
</linearGradient>
</defs>
</svg>
