<svg width="246" height="36" viewBox="0 0 246 36" fill="none" xmlns="http://www.w3.org/2000/svg">
<path d="M5.89294 35L0.420938 0.439999H10.4049L12.0369 21.56L16.0209 5.144H23.5089L27.5409 21.704L29.1249 0.439999H39.1089L33.6369 35H24.4689L19.8609 14.648L15.0609 35H5.89294ZM47.8637 30.344L46.9517 35H36.9197L43.8317 4.76L42.7277 0.0559978H57.2237L64.7597 35H54.8237L53.9117 30.344H47.8637ZM48.8237 22.904H52.9037L50.8877 10.328L48.8237 22.904ZM84.3804 8.12H78.0444V35H68.6364V8.12H61.6284V0.439999H85.8204L84.3804 8.12ZM85.3116 17.96C85.3116 13.416 85.8396 9.848 86.8956 7.256C87.9516 4.632 89.5356 2.776 91.6476 1.688C93.7916 0.599998 96.4476 0.0559978 99.6156 0.0559978C100.64 0.0559978 101.808 0.119998 103.12 0.247998C104.464 0.343999 105.76 0.535999 107.008 0.823999V13.496H101.2L100.432 7.688C99.5676 7.688 98.8156 7.8 98.1756 8.024C97.5676 8.216 97.0556 8.648 96.6396 9.32C96.2236 9.992 95.9036 11.016 95.6796 12.392C95.4876 13.768 95.3916 15.608 95.3916 17.912C95.3916 20.408 95.6636 22.376 96.2076 23.816C96.7516 25.224 97.5676 26.232 98.6556 26.84C99.7756 27.416 101.2 27.704 102.928 27.704C103.696 27.704 104.432 27.656 105.136 27.56C105.84 27.464 106.592 27.352 107.392 27.224V34.808C106.464 35.032 105.344 35.192 104.032 35.288C102.72 35.416 101.552 35.48 100.528 35.48C95.0556 35.48 91.1516 34.008 88.8156 31.064C86.4796 28.12 85.3116 23.752 85.3116 17.96ZM110.746 35V0.439999H120.106V13.736H124.906V0.439999H134.266V35H124.906V21.416H120.106V35H110.746ZM161.006 0.439999L167.774 20.168V0.439999H176.894V35H165.662L159.518 17.048V35H150.398V5.384L148.43 0.439999H161.006ZM193.103 35.48C189.967 35.48 187.439 34.952 185.519 33.896C183.599 32.808 182.191 30.984 181.295 28.424C180.431 25.832 179.999 22.28 179.999 17.768C179.999 13.256 180.431 9.72 181.295 7.16C182.191 4.568 183.599 2.744 185.519 1.688C187.439 0.599998 189.967 0.0559978 193.103 0.0559978C196.239 0.0559978 198.767 0.599998 200.687 1.688C202.607 2.744 203.999 4.568 204.863 7.16C205.759 9.72 206.207 13.256 206.207 17.768C206.207 22.28 205.759 25.832 204.863 28.424C203.999 30.984 202.607 32.808 200.687 33.896C198.767 34.952 196.239 35.48 193.103 35.48ZM196.127 17.672C196.127 14.92 196.031 12.824 195.839 11.384C195.679 9.912 195.375 8.904 194.927 8.36C194.511 7.784 193.903 7.496 193.103 7.496C192.335 7.496 191.727 7.784 191.279 8.36C190.831 8.904 190.511 9.912 190.319 11.384C190.159 12.824 190.079 14.92 190.079 17.672C190.079 20.392 190.159 22.504 190.319 24.008C190.511 25.512 190.831 26.568 191.279 27.176C191.727 27.752 192.335 28.04 193.103 28.04C193.903 28.04 194.511 27.752 194.927 27.176C195.375 26.568 195.679 25.512 195.839 24.008C196.031 22.504 196.127 20.392 196.127 17.672ZM212.377 35L206.905 0.439999H216.889L218.521 21.56L222.505 5.144H229.993L234.025 21.704L235.609 0.439999H245.593L240.121 35H230.953L226.345 14.648L221.545 35H212.377Z" fill="url(#paint0_linear_1_14)"/>
<defs>
<linearGradient id="paint0_linear_1_14" x1="-1" y1="18" x2="247" y2="18" gradientUnits="userSpaceOnUse">
<stop stop-color="#FF0000"/>
<stop offset="1" stop-color="#1A01FF"/>
</linearGradient>
</defs>
</svg>
